<svg width="7" height="11" viewBox="0 0 7 11" fill="none" xmlns="http://www.w3.org/2000/svg">
<path d="M0.233093 4.01352L3.33064 0.256174C3.41869 0.148821 3.58274 0.148821 3.672 0.256174L6.76954 4.01352C6.88775 4.15705 6.78643 4.37538 6.59947 4.37538H0.403168C0.216206 4.37538 0.113678 4.15826 0.233093 4.01352Z" fill="white"/>
<path d="M0.360668 4.14151C0.436659 4.04984 0.51265 3.95816 0.587435 3.86529C0.77681 3.6349 0.966185 3.40572 1.15677 3.17533C1.40283 2.8774 1.64769 2.57947 1.89376 2.28153C2.14224 1.98119 2.38951 1.67963 2.63799 1.37929C2.83098 1.14528 3.02277 0.912486 3.21577 0.678481C3.29658 0.580778 3.37498 0.480663 3.45821 0.385372C3.46183 0.380547 3.48957 0.355217 3.4751 0.366073C3.45821 0.379341 3.51249 0.350392 3.48837 0.358836C3.47269 0.364867 3.53541 0.358836 3.49319 0.358836C3.52938 0.358836 3.46907 0.357629 3.50526 0.358836C3.50767 0.358836 3.533 0.367279 3.51249 0.360042C3.48957 0.351598 3.51973 0.363661 3.51852 0.363661C3.52094 0.363661 3.54265 0.380547 3.52576 0.367279C3.51008 0.355217 3.53059 0.372104 3.53179 0.374516C3.53541 0.378135 3.53903 0.38296 3.54265 0.386579C3.54868 0.393816 3.55471 0.401053 3.56074 0.40829C3.60175 0.457745 3.64276 0.507199 3.68257 0.556654C3.85144 0.76171 4.02031 0.966765 4.18918 1.17182C4.4268 1.4601 4.66442 1.74839 4.90205 2.03667C5.15414 2.34305 5.40745 2.64943 5.65955 2.9558C5.86943 3.21031 6.07931 3.46482 6.28919 3.71933C6.40016 3.85322 6.50992 3.98832 6.62089 4.12221C6.62572 4.12824 6.63175 4.13668 6.63778 4.14271C6.63899 4.14271 6.60763 4.10291 6.62331 4.12462C6.62693 4.13065 6.63054 4.13789 6.63537 4.14392C6.63296 4.14151 6.62813 4.11497 6.63175 4.13306C6.63296 4.1391 6.63537 4.14633 6.63778 4.15357C6.64622 4.18131 6.64261 4.13065 6.63657 4.1596C6.63537 4.16443 6.63175 4.18614 6.63657 4.16201C6.64381 4.13427 6.63416 4.16804 6.63296 4.17046C6.6221 4.18614 6.63778 4.16081 6.63899 4.15839C6.63537 4.16443 6.63296 4.17046 6.62934 4.17649C6.62572 4.18252 6.6221 4.18734 6.61848 4.19338C6.6221 4.18734 6.62813 4.16925 6.62572 4.18252C6.62451 4.18614 6.61366 4.19337 6.61124 4.19699C6.61607 4.19217 6.62693 4.17649 6.62089 4.18855C6.61848 4.19217 6.60642 4.19579 6.6028 4.1982C6.61366 4.19096 6.62692 4.18855 6.60642 4.19458C6.57626 4.20423 6.62934 4.19699 6.59556 4.19579C6.59436 4.19579 6.59436 4.19579 6.59315 4.19579C6.58833 4.19579 6.58471 4.19579 6.57988 4.19579C6.563 4.19579 6.5449 4.19579 6.52802 4.19579C6.35191 4.19579 6.1746 4.19579 5.99849 4.19579C5.69453 4.19579 5.38935 4.19579 5.08539 4.19579C4.70423 4.19579 4.32427 4.19579 3.94311 4.19579C3.54265 4.19579 3.14098 4.19579 2.74052 4.19579C2.37383 4.19579 2.00835 4.19579 1.64166 4.19579C1.36544 4.19579 1.08801 4.19579 0.81179 4.19579C0.679107 4.19579 0.54763 4.19699 0.414947 4.19579C0.411329 4.19579 0.40771 4.19579 0.404091 4.19579C0.402885 4.19579 0.402885 4.19579 0.401679 4.19579C0.399267 4.19579 0.401679 4.19458 0.393235 4.19579C0.373936 4.1982 0.399267 4.19699 0.404091 4.1982C0.400473 4.19699 0.384792 4.19579 0.383586 4.19338C0.379967 4.18614 0.383586 4.19217 0.394442 4.19941C0.390823 4.19699 0.378761 4.19338 0.376349 4.18976C0.370318 4.17769 0.381173 4.19337 0.385998 4.1982C0.383586 4.19458 0.37273 4.18855 0.371524 4.18373C0.369111 4.17046 0.375142 4.18855 0.378761 4.19458C0.375142 4.18855 0.371524 4.18373 0.367905 4.17769C0.364287 4.17166 0.361874 4.16563 0.358255 4.1596C0.359462 4.16201 0.375142 4.18734 0.364287 4.17166C0.360668 4.16684 0.361874 4.15839 0.359462 4.15236C0.359462 4.15236 0.36308 4.18855 0.361874 4.16684C0.361874 4.16081 0.36308 4.15236 0.361874 4.14633C0.36308 4.14995 0.352224 4.1789 0.359462 4.16081C0.361874 4.15357 0.375142 4.11738 0.365493 4.13548C0.355843 4.15478 0.383586 4.11135 0.387204 4.10653C0.447515 4.02933 0.399267 3.90388 0.322069 3.85925C0.229191 3.80498 0.133901 3.84599 0.0747963 3.92439C-0.0241129 4.05345 -0.0241128 4.25007 0.0699715 4.38154C0.149581 4.49252 0.266584 4.55403 0.404091 4.55765C0.437865 4.55886 0.470433 4.55765 0.504207 4.55765C0.704438 4.55765 0.904668 4.55765 1.10369 4.55765C1.43058 4.55765 1.75746 4.55765 2.08313 4.55765C2.47877 4.55765 2.87441 4.55765 3.27004 4.55765C3.67895 4.55765 4.08665 4.55765 4.49555 4.55765C4.8538 4.55765 5.21325 4.55765 5.57149 4.55765C5.8248 4.55765 6.07689 4.55765 6.3302 4.55765C6.45082 4.55765 6.60763 4.57816 6.72463 4.53714C6.88747 4.47925 7.00567 4.32244 6.99964 4.14633C6.99603 4.04381 6.95501 3.96058 6.89229 3.88338C6.86214 3.84599 6.83077 3.80859 6.79941 3.7712C6.64019 3.57821 6.48218 3.38521 6.32296 3.19343C6.08292 2.90273 5.84289 2.61083 5.60285 2.32013C5.34472 2.00652 5.08539 1.6929 4.82726 1.37929C4.60894 1.11513 4.39061 0.849763 4.17229 0.585603C4.05408 0.442064 3.93587 0.298525 3.81766 0.156193C3.70428 0.0186847 3.51732 -0.0404195 3.34845 0.0295406C3.26522 0.0645207 3.21094 0.120006 3.15666 0.186348C3.02157 0.350392 2.88647 0.514437 2.75137 0.678481C2.52461 0.953497 2.29663 1.22972 2.06987 1.50473C1.80933 1.82076 1.54878 2.13679 1.28824 2.45282C1.05665 2.73386 0.825059 3.0137 0.594673 3.29475C0.451134 3.46844 0.307595 3.64214 0.165262 3.81583C0.144756 3.83996 0.125457 3.86408 0.104951 3.8882C0.0434348 3.96299 0.0313727 4.07034 0.104951 4.14392C0.168881 4.20544 0.297945 4.2175 0.360668 4.14151Z" fill="white"/>
<path d="M0.232971 6.37419L3.33052 10.1315C3.41857 10.2389 3.58261 10.2389 3.67187 10.1315L6.76942 6.37419C6.88763 6.23065 6.78631 6.01233 6.59934 6.01233H0.403046C0.216084 6.01233 0.113556 6.22945 0.232971 6.37419Z" fill="white"/>
<path d="M0.104984 6.50197C0.183388 6.59726 0.261792 6.69255 0.341402 6.78784C0.538014 7.02667 0.735832 7.2655 0.932444 7.50433C1.18575 7.81192 1.43905 8.11829 1.69236 8.42588C1.94325 8.72984 2.19293 9.03381 2.44382 9.33657C2.63199 9.56454 2.82016 9.79251 3.00833 10.0217C3.11327 10.1495 3.21942 10.322 3.38587 10.3739C3.54992 10.4246 3.71758 10.357 3.82252 10.2304C3.86595 10.1773 3.90937 10.1254 3.95279 10.0724C4.13011 9.85644 4.30862 9.64053 4.48594 9.42582C4.732 9.12668 4.97928 8.82754 5.22534 8.5284C5.48106 8.21841 5.73678 7.90721 5.99249 7.59721C6.19875 7.34753 6.40502 7.09784 6.61128 6.84695C6.70536 6.73236 6.80065 6.62018 6.89353 6.50438C6.95987 6.42236 7.0045 6.32948 6.99968 6.22213C6.99244 6.04603 6.87061 5.8856 6.69812 5.84338C6.64264 5.83011 6.58957 5.83132 6.53287 5.83132C6.35194 5.83132 6.17101 5.83132 5.98887 5.83132C5.67405 5.83132 5.35923 5.83132 5.04441 5.83132C4.6536 5.83132 4.26279 5.83132 3.87318 5.83132C3.46548 5.83132 3.05658 5.83132 2.64888 5.83132C2.27978 5.83132 1.91068 5.83132 1.54158 5.83132C1.2738 5.83132 1.00482 5.83132 0.737038 5.83132C0.626067 5.83132 0.515096 5.8277 0.404124 5.83132C0.26541 5.83494 0.145995 5.89887 0.0675919 6.01346C-0.0228738 6.14494 -0.0216676 6.33793 0.0772416 6.46579C0.136346 6.54298 0.232843 6.58399 0.324514 6.53092C0.400506 6.48629 0.44996 6.36085 0.38965 6.28365C0.381206 6.27159 0.373969 6.25711 0.364319 6.24626C0.366732 6.24867 0.371557 6.27521 0.367938 6.25711C0.366732 6.25108 0.364319 6.24384 0.361907 6.23661C0.353464 6.20886 0.357082 6.25953 0.363113 6.23058C0.364319 6.22575 0.367938 6.20404 0.363113 6.22816C0.355876 6.25591 0.365526 6.22213 0.366732 6.21972C0.377588 6.20404 0.361907 6.22937 0.360701 6.23178C0.364319 6.22575 0.366732 6.21972 0.37035 6.21369C0.373969 6.20766 0.377588 6.20283 0.381206 6.1968C0.377588 6.20283 0.371557 6.22093 0.373969 6.20766C0.375175 6.20404 0.386031 6.1968 0.388444 6.19318C0.383619 6.19801 0.372763 6.21369 0.378794 6.20163C0.381206 6.19801 0.393268 6.19439 0.396887 6.19198C0.386031 6.19921 0.372763 6.20163 0.393268 6.1956C0.423424 6.18595 0.370351 6.19318 0.404124 6.19439C0.405331 6.19439 0.405331 6.19439 0.406537 6.19439C0.410155 6.19439 0.41498 6.19439 0.418599 6.19439C0.464435 6.19439 0.511477 6.19439 0.557313 6.19439C0.770812 6.19439 0.985517 6.19439 1.19902 6.19439C1.52711 6.19439 1.85519 6.19439 2.18328 6.19439C2.57409 6.19439 2.96491 6.19439 3.35572 6.19439C3.75377 6.19439 4.15061 6.19439 4.54866 6.19439C4.89725 6.19439 5.24706 6.19439 5.59565 6.19439C5.84172 6.19439 6.08778 6.19439 6.33385 6.19439C6.40019 6.19439 6.46774 6.19439 6.53408 6.19439C6.55097 6.19439 6.56785 6.19439 6.58353 6.19439C6.58715 6.19439 6.59077 6.19439 6.5956 6.19439C6.5968 6.19439 6.5968 6.19439 6.59801 6.19439C6.60283 6.19439 6.60886 6.1956 6.61369 6.19439C6.57268 6.1956 6.63178 6.20283 6.61369 6.1956C6.58595 6.18474 6.64626 6.21731 6.62093 6.19921C6.5956 6.18112 6.64746 6.22816 6.62696 6.20404C6.61128 6.18595 6.6342 6.21972 6.63781 6.22454C6.64867 6.23902 6.63299 6.2161 6.63299 6.21248C6.6342 6.21972 6.63661 6.23178 6.64023 6.23781C6.64023 6.23781 6.63661 6.20163 6.63781 6.22334C6.63781 6.22937 6.63661 6.23781 6.63781 6.24384C6.63661 6.24023 6.64746 6.21128 6.64023 6.22937C6.63781 6.2354 6.63661 6.24384 6.6354 6.24988C6.6342 6.2547 6.62455 6.27279 6.6342 6.2547C6.64505 6.23419 6.63058 6.25591 6.63058 6.25832C6.63058 6.26556 6.60645 6.28365 6.63178 6.25832C6.69812 6.19318 6.64385 6.24384 6.64143 6.24626C6.6342 6.25229 6.62937 6.26194 6.62334 6.26917C6.58354 6.31742 6.54252 6.36688 6.50272 6.41513C6.33385 6.61898 6.16619 6.82403 5.99732 7.02788C5.75849 7.31737 5.51966 7.60686 5.28083 7.89756C5.02873 8.20393 4.77543 8.51031 4.52333 8.81669C4.31345 9.0712 4.10357 9.32571 3.89369 9.58022C3.78272 9.71411 3.67295 9.8492 3.56198 9.98309C3.55595 9.99033 3.55112 9.99636 3.54509 10.0036C3.53786 10.012 3.53062 10.0193 3.52218 10.0277C3.54268 10.0084 3.51856 10.0289 3.50649 10.035C3.53424 10.0217 3.50529 10.0325 3.49202 10.035C3.49443 10.035 3.52338 10.0313 3.50288 10.0313C3.47513 10.0313 3.53303 10.0338 3.50529 10.0338C3.49805 10.0338 3.48961 10.0301 3.48358 10.0277C3.48599 10.0277 3.51132 10.0398 3.49081 10.0313C3.48358 10.0277 3.47755 10.0241 3.47031 10.0193C3.47393 10.0217 3.48961 10.0374 3.47634 10.0229C3.47031 10.0169 3.46428 10.0108 3.45945 10.0036C3.43533 9.97586 3.41241 9.9457 3.38829 9.91675C3.24354 9.74064 3.09759 9.56454 2.95284 9.38843C2.72487 9.11221 2.4969 8.83478 2.26892 8.55856C2.01441 8.24977 1.7599 7.94098 1.50539 7.63219C1.28104 7.35959 1.05668 7.08819 0.832329 6.81559C0.694821 6.64792 0.557313 6.48147 0.418599 6.3138C0.399299 6.29089 0.381206 6.26797 0.361907 6.24505C0.299184 6.16906 0.17012 6.18112 0.106191 6.24505C0.0301995 6.31983 0.0422615 6.42598 0.104984 6.50197Z" fill="white"/>
</svg>
