<svg width="18" height="20" viewBox="0 0 18 20" fill="none" xmlns="http://www.w3.org/2000/svg">
<g clip-path="url(#clip0)">
<path d="M2.27455 8.4936C2.25869 8.28948 2.25061 8.08319 2.25061 7.875C2.25061 3.52576 5.77637 0 10.1256 0C14.4749 0 18.0006 3.52576 18.0006 7.875C18.0006 12.2242 14.4749 15.75 10.1256 15.75C7.52744 15.75 5.22316 14.4918 3.78883 12.5514L4.39194 12.1056C5.72798 13.913 7.83551 15 10.1256 15C14.0606 15 17.2506 11.81 17.2506 7.875C17.2506 3.93997 14.0606 0.75 10.1256 0.75C6.19058 0.75 3.00061 3.93997 3.00061 7.875C3.00061 8.06682 3.00819 8.2576 3.02322 8.44707L4.23543 7.23484L4.76579 7.76516L2.62561 9.90532L0.485428 7.76516L1.01579 7.23484L2.27455 8.4936ZM10.5006 3.75V8.08161L13.7497 10.9697L13.2515 11.5303L9.75061 8.41839V3.75H10.5006Z" fill="black"/>
</g>
<defs>
<clipPath id="clip0">
<rect width="18" height="19.6875" fill="white"/>
</clipPath>
</defs>
</svg>
