<svg width="24" height="24" viewBox="0 0 24 24" fill="none" xmlns="http://www.w3.org/2000/svg">
<g filter="url(#filter0_d)">
<path d="M16.4384 9.79032C15.9176 9.67912 15.5056 9.91992 15.1408 10.1295C14.7672 10.3447 14.444 10.5319 14.0376 10.3839C11.952 9.53352 10.4632 8.04392 9.61519 5.96714C9.46559 5.55434 9.65199 5.23034 9.86719 4.85514C10.0768 4.49194 10.3144 4.07835 10.2064 3.55835C10.108 3.09035 8.60879 1.20476 8.1624 0.767963C7.868 0.480764 7.5664 0.322365 7.2576 0.295965C6.09361 0.247165 4.65441 1.92476 4.42561 2.29355C3.85442 3.07995 3.85842 4.12635 4.43601 5.39514C5.82721 8.80312 11.1472 14.1239 14.5936 15.5567C15.2296 15.8527 15.8112 15.9999 16.3336 15.9999C16.8456 15.9999 17.2999 15.8583 17.6911 15.5767C17.9863 15.4087 19.7423 13.9183 19.6999 12.7319C19.6743 12.4295 19.5159 12.1271 19.2287 11.8343C18.7919 11.3871 16.9064 9.88791 16.4384 9.79032Z" fill="#211F26"/>
<path d="M16.0478 6.23087C16.103 6.51327 16.3486 6.70767 16.6254 6.70767C16.663 6.70767 16.7006 6.70367 16.739 6.69647C17.0582 6.63407 17.2662 6.32447 17.2038 6.00607C16.8854 4.37248 15.6238 3.11168 13.991 2.79329C13.6734 2.73809 13.363 2.93889 13.2998 3.25888C13.2382 3.57808 13.447 3.88768 13.7654 3.94928C14.9262 4.17568 15.8214 5.07087 16.0478 6.23087Z" fill="#211F26"/>
<path d="M13.9435 0.00456336C13.6195 -0.0362364 13.3283 0.201362 13.2931 0.524561C13.2571 0.848559 13.4907 1.13896 13.8131 1.17496C16.4643 1.46936 18.5243 3.52615 18.8219 6.17813C18.8563 6.47813 19.1107 6.70053 19.4067 6.70053C19.4283 6.70053 19.4507 6.69893 19.4731 6.69653C19.7963 6.66053 20.0291 6.36933 19.9923 6.04613C19.6323 2.84455 17.1451 0.359762 13.9435 0.00456336Z" fill="#211F26"/>
</g>
<defs>
<filter id="filter0_d" x="0" y="0" width="23.9961" height="23.9999" filterUnits="userSpaceOnUse" color-interpolation-filters="sRGB">
<feFlood flood-opacity="0" result="BackgroundImageFix"/>
<feColorMatrix in="SourceAlpha" type="matrix" values="0 0 0 0 0 0 0 0 0 0 0 0 0 0 0 0 0 0 127 0"/>
<feOffset dy="4"/>
<feGaussianBlur stdDeviation="2"/>
<feColorMatrix type="matrix" values="0 0 0 0 0 0 0 0 0 0 0 0 0 0 0 0 0 0 0.25 0"/>
<feBlend mode="normal" in2="BackgroundImageFix" result="effect1_dropShadow"/>
<feBlend mode="normal" in="SourceGraphic" in2="effect1_dropShadow" result="shape"/>
</filter>
</defs>
</svg>
